<svg width="59" height="61" viewBox="0 0 59 61" fill="none" xmlns="http://www.w3.org/2000/svg">
<g clip-path="url(#clip0)">
<path d="M41.7075 18.942V30.2078H35.7344V0H46.914C54.5576 0 59.0012 3.45248 59.0012 9.44716C59.0012 15.4418 54.5576 18.942 46.914 18.942H41.7075ZM46.675 14.0511C50.9747 14.0511 53.173 12.6118 53.173 9.44716C53.173 6.3302 50.9747 4.89085 46.675 4.89085H41.7075V14.0511H46.675Z" fill="white"/>
<path d="M0 48.2433V30.2078H6.02014V47.476C6.02014 52.9426 7.69164 55.868 11.8954 55.868C16.0991 55.868 17.7706 52.9426 17.7706 47.476V30.2078H23.7917V48.2433C23.7917 57.0671 18.5363 60.999 11.8954 60.999C5.2074 60.999 0 57.0671 0 48.2433Z" fill="white"/>
<path d="M2.33736 7.15879V6.68323H3.25781V0.862634H1.35424L0.732446 1.14078V2.63847H0V0H0.732446V0.396792H6.93081V0H7.66423V2.63847H6.93277V1.35862L6.20032 0.862634H4.75404V6.68517H5.68722V7.15879H2.33736Z" fill="white"/>
<path d="M8.14453 7.15873V6.68316H8.80647L9.17759 5.60268V0.872296H8.28456V0.396729H11.2878L13.0827 4.80034L14.8452 0.396729H17.7731V0.872296H16.8399V6.68511H17.7721V7.15873H14.4212V6.68316H15.3632V0.872296H15.2046L12.9182 6.52659H12.1691L9.86206 0.872296H9.69168V5.60268L10.0628 6.68414H10.9656V7.15873H8.14453Z" fill="white"/>
</g>
<defs>
<clipPath id="clip0">
<rect width="59" height="61" fill="white"/>
</clipPath>
</defs>
</svg>
