<svg width="25" height="24" viewBox="0 0 25 24" fill="none" xmlns="http://www.w3.org/2000/svg">
<path d="M24.4727 12C24.4727 18.3513 19.3239 23.5 12.9727 23.5C6.62138 23.5 1.47266 18.3513 1.47266 12C1.47266 5.64873 6.62138 0.5 12.9727 0.5C19.3239 0.5 24.4727 5.64873 24.4727 12Z" fill="white" stroke="white"/>
<path d="M17.9703 15.9996H17.9725V12.6984C17.9725 11.0837 17.6248 9.83984 15.7371 9.83984C14.8298 9.83984 14.2207 10.3378 13.9721 10.81H13.9457V9.99049H12.1559V15.9996H14.0192V13.0239C14.0192 12.2405 14.1676 11.483 15.1377 11.483C16.0936 11.483 16.1079 12.3771 16.1079 13.0742V15.9996H17.9703Z" fill="black"/>
<path d="M9.12134 9.99121H10.9873V15.9998H9.12134V9.99121Z" fill="black"/>
<path d="M10.0534 7C9.76683 7.00009 9.492 7.11398 9.28935 7.31663C9.0867 7.51928 8.97281 7.79411 8.97272 8.0807C8.97272 8.67731 9.45682 9.1716 10.0534 9.1716C10.65 9.1716 11.1348 8.67731 11.1348 8.0807C11.1345 7.79405 11.0205 7.51922 10.8177 7.31659C10.615 7.11396 10.3401 7.00009 10.0534 7V7Z" fill="black"/>
</svg>
