<svg width="24" height="24" viewBox="0 0 24 24" fill="none" xmlns="http://www.w3.org/2000/svg">
<path d="M23.5 12C23.5 18.3513 18.3513 23.5 12 23.5C5.64873 23.5 0.5 18.3513 0.5 12C0.5 5.64873 5.64873 0.5 12 0.5C18.3513 0.5 23.5 5.64873 23.5 12Z" fill="white" stroke="white"/>
<line x1="9.6115" y1="14.5761" x2="14.5761" y2="9.61158" stroke="black"/>
<path d="M9.41596 10.5191L7.2083 12.7244C5.98904 13.9424 5.98904 15.917 7.2083 17.135V17.135C8.42756 18.3529 10.4044 18.3529 11.6236 17.135L13.8313 14.9297" stroke="black"/>
<path d="M14.929 13.826L17.1355 11.6196C18.3541 10.401 18.3541 8.42522 17.1355 7.20662V7.20662C15.9169 5.98802 13.9412 5.98802 12.7226 7.20662L10.5161 9.41309" stroke="black"/>
</svg>
