<svg width="25" height="24" viewBox="0 0 25 24" fill="none" xmlns="http://www.w3.org/2000/svg">
<path d="M23.8535 12C23.8535 18.3513 18.7048 23.5 12.3535 23.5C6.00224 23.5 0.853516 18.3513 0.853516 12C0.853516 5.64873 6.00224 0.5 12.3535 0.5C18.7048 0.5 23.8535 5.64873 23.8535 12Z" fill="white" stroke="white"/>
<path d="M9.98654 17.1845C14.8013 17.1845 17.4343 13.1956 17.4343 9.73677C17.4343 9.62344 17.432 9.51069 17.4267 9.39838C17.9378 9.02893 18.3821 8.56777 18.7326 8.04305C18.2636 8.25143 17.7589 8.39175 17.2294 8.45502C17.7698 8.13099 18.1848 7.61817 18.3805 7.00697C17.8747 7.30691 17.3146 7.52487 16.7184 7.64241C16.2406 7.13365 15.5603 6.81543 14.8077 6.81543C13.3619 6.81543 12.1896 7.98777 12.1896 9.43277C12.1896 9.63824 12.2127 9.83791 12.2574 10.0296C10.082 9.92033 8.15294 8.87859 6.86204 7.29487C6.63698 7.68159 6.5074 8.13114 6.5074 8.61043C6.5074 9.51853 6.96957 10.3203 7.67234 10.7894C7.24296 10.7762 6.83955 10.6581 6.48679 10.4619C6.48621 10.4728 6.48621 10.4838 6.48621 10.4953C6.48621 11.7631 7.38865 12.8215 8.58623 13.0614C8.36639 13.1213 8.13509 13.1535 7.89624 13.1535C7.72762 13.1535 7.56365 13.1367 7.40417 13.1064C7.73734 14.1462 8.70377 14.9031 9.84956 14.9244C8.95351 15.6266 7.82485 16.045 6.59853 16.045C6.38739 16.045 6.17902 16.0329 5.97412 16.0087C7.13253 16.7511 8.50802 17.1845 9.98654 17.1845Z" fill="black"/>
</svg>
