<svg width="24" height="24" viewBox="0 0 24 24" fill="none" xmlns="http://www.w3.org/2000/svg">
<path d="M12 24C18.6274 24 24 18.6274 24 12C24 5.37258 18.6274 0 12 0C5.37258 0 0 5.37258 0 12C0 18.6274 5.37258 24 12 24Z" fill="white"/>
<path d="M14.0498 10.33C14.0479 11.0673 13.8274 11.7874 13.4163 12.3995C13.0053 13.0116 12.4221 13.4881 11.7403 13.7689C11.0586 14.0497 10.3089 14.1221 9.58602 13.9771C8.86313 13.832 8.19945 13.476 7.6788 12.9539C7.15815 12.4319 6.80391 11.7673 6.66079 11.044C6.51768 10.3207 6.59211 9.57124 6.87472 8.89026C7.15733 8.20927 7.63544 7.62731 8.24862 7.2179C8.8618 6.80848 9.58255 6.58997 10.3198 6.58997C11.3092 6.59524 12.2564 6.99127 12.955 7.6918C13.6537 8.39233 14.0472 9.34058 14.0498 10.33Z" stroke="black" stroke-width="0.8" stroke-miterlimit="10"/>
<path d="M17.4109 17.4L12.9609 12.97" stroke="black" stroke-width="0.8" stroke-miterlimit="10"/>
</svg>
