<svg width="25" height="25" viewBox="0 0 25 25" fill="none" xmlns="http://www.w3.org/2000/svg">
<path fill-rule="evenodd" clip-rule="evenodd" d="M5.10965 20.6898C7.06144 22.4574 9.65061 23.5342 12.4913 23.5342C15.3893 23.5342 18.0256 22.4135 19.9904 20.5818L12.604 13.1954L5.10965 20.6898ZM4.39952 19.9857C2.594 18.026 1.49127 15.4089 1.49127 12.5342C1.49127 9.63613 2.61198 6.99984 4.44366 5.03506L11.8969 12.4883L4.39952 19.9857ZM12.604 11.7812L5.15794 4.33512C7.10405 2.59331 9.67397 1.53418 12.4913 1.53418C15.366 1.53418 17.9831 2.6369 19.9428 4.44243L12.604 11.7812ZM13.3111 12.4883L20.6903 19.8675C22.4321 17.9214 23.4913 15.3515 23.4913 12.5342C23.4913 9.69351 22.4145 7.10434 20.6469 5.15256L13.3111 12.4883ZM21.3548 4.44465C23.303 6.57808 24.4913 9.41736 24.4913 12.5342C24.4913 19.1616 19.1187 24.5342 12.4913 24.5342C5.86386 24.5342 0.491272 19.1616 0.491272 12.5342C0.491272 5.90676 5.86386 0.53418 12.4913 0.53418C15.6421 0.53418 18.5093 1.74854 20.6504 3.73477L20.6885 3.6967L21.3956 4.40381L21.3548 4.44465Z" fill="black"/>
</svg>
