<svg width="24" height="26" viewBox="0 0 24 26" fill="none" xmlns="http://www.w3.org/2000/svg">
<g clip-path="url(#clip0)">
<path d="M23.5 12.7868C23.5 19.2946 18.341 24.5515 12 24.5515C5.65895 24.5515 0.5 19.2946 0.5 12.7868C0.5 6.27899 5.65895 1.02209 12 1.02209C18.341 1.02209 23.5 6.27899 23.5 12.7868Z" stroke="white"/>
<path d="M14.0498 11.0799C14.0479 11.8335 13.8274 12.5696 13.4163 13.1951C13.0053 13.8207 12.4221 14.3078 11.7403 14.5947C11.0586 14.8817 10.3089 14.9558 9.58602 14.8075C8.86313 14.6593 8.19945 14.2954 7.6788 13.7618C7.15815 13.2282 6.80391 12.5489 6.66079 11.8097C6.51768 11.0705 6.59211 10.3045 6.87472 9.60848C7.15733 8.91247 7.63544 8.31768 8.24862 7.89923C8.8618 7.48078 9.58255 7.25745 10.3198 7.25745C11.3092 7.26284 12.2564 7.6676 12.955 8.38359C13.6537 9.09957 14.0472 10.0687 14.0498 11.0799Z" stroke="white" stroke-miterlimit="10"/>
<path d="M17.4109 18.3059L12.9609 13.7782" stroke="white" stroke-miterlimit="10"/>
</g>
<defs>
<clipPath id="clip0">
<rect width="24" height="24.5294" fill="white" transform="translate(0 0.522095)"/>
</clipPath>
</defs>
</svg>
