<svg width="115" height="24" viewBox="0 0 115 24" fill="none" xmlns="http://www.w3.org/2000/svg">
<path d="M8.2 19V18.18H6.42L8.2 13.18L14.64 6.18H16.36V5.36H11.24V6.18H12.78L12.44 7.32L7.76 12.46L5.8 6.18H8.22V5.36H2.96V6.18H4.14L6.44 13.34L4.74 18.18H3.08V19H8.2ZM14.6834 19.2C17.7034 19.2 20.7434 15.28 20.7434 12C20.7434 10.4 19.5834 9.78 18.3234 9.78C14.7634 9.78 12.1234 13.42 12.1234 16.5C12.1234 18.18 13.2834 19.2 14.6834 19.2ZM15.2634 18.58C14.1834 18.58 13.7834 17.74 13.7834 16.72C13.7834 13.6 15.8834 10.34 17.7634 10.34C18.6034 10.34 19.0434 10.92 19.0434 12.04C19.0434 15.28 16.9434 18.58 15.2634 18.58ZM23.5509 19.2C25.1509 19.2 26.7109 17.44 28.1309 15.26L28.2909 15.3C27.9709 16.06 27.6709 16.82 27.3509 17.58C27.2509 17.84 27.2109 18.06 27.2109 18.24C27.2109 18.88 27.6909 19.22 28.1509 19.22C28.7709 19.22 29.2909 18.86 29.8309 18.44L31.0709 17.5L30.7109 17L29.8309 17.78C29.6509 17.94 29.4509 18.1 29.2909 18.1C29.1109 18.1 28.9509 17.94 28.9509 17.64C28.9509 17.48 28.9709 17.28 29.1309 16.84L31.5309 10H29.9509L28.9109 12.94C28.1509 15.06 25.6309 18.04 24.4709 18.04C24.0909 18.04 23.9509 17.8 23.9509 17.38C23.9709 16.92 24.1509 16.38 24.3309 15.88L25.8509 11.52C25.9509 11.24 25.9909 11 25.9909 10.8C25.9909 10.1 25.4909 9.8 25.0309 9.8C24.4109 9.8 23.9109 10.14 23.3509 10.56L22.1109 11.52L22.4709 12.02L23.2509 11.32C23.5309 11.06 23.7909 10.96 23.9709 10.96C24.1909 10.96 24.3309 11.12 24.3309 11.32C24.3309 11.38 24.3109 11.44 24.2909 11.5L22.7309 15.92C22.5309 16.46 22.3309 17.2 22.3309 17.76C22.3309 18.54 22.5909 19.2 23.5509 19.2ZM39.2842 19.22C41.0242 19.22 42.4842 17.44 43.9042 15.26L44.0642 15.3L43.1242 17.48C43.0042 17.76 42.9442 18 42.9442 18.22C42.9442 18.84 43.3642 19.22 43.9042 19.22C44.5242 19.22 45.0442 18.84 45.5842 18.44L46.8242 17.5L46.4642 17L45.3442 18C45.2642 18.08 45.1642 18.1 45.0842 18.1C44.9042 18.1 44.7242 17.94 44.7242 17.58C44.7242 17.42 44.7442 17.22 44.8442 16.96L47.6442 8.96H46.8242L46.0442 10.36C45.7042 10.12 44.9442 9.98 44.4042 9.98C40.6442 9.98 37.6242 14.38 37.6242 17.3C37.6242 18.66 38.3442 19.22 39.2842 19.22ZM40.0242 18.14C39.5442 18.14 39.3042 17.72 39.3042 17.06C39.3042 15.3 41.2442 10.62 43.9442 10.62C44.6442 10.62 45.0642 11.08 45.0642 11.64C45.0642 11.78 45.0442 11.94 44.9842 12.08L44.6842 12.94C43.9442 15.08 41.3842 18.14 40.0242 18.14ZM50.2716 19L51.0316 16.88C51.4316 15.74 51.7316 15.4 52.3516 14.42C53.5516 12.56 55.2116 11.94 56.0116 11.68V9.8C54.9716 10.2 54.1516 10.78 52.6716 13.18L51.8116 14.56L51.5916 14.52C52.2716 12.26 52.6716 11.62 52.6716 10.8C52.6716 10.3 52.3116 9.8 51.4516 9.8C50.8316 9.8 50.3316 10.16 49.7916 10.58L48.5716 11.52L48.9316 12.02L49.7116 11.32C49.9916 11.06 50.2916 10.96 50.5316 10.96C50.8916 10.96 51.1516 11.2 51.1516 11.5C51.1516 12.1 50.8716 12.84 50.6316 13.52L48.6916 19H50.2716ZM58.2939 19.22C60.0739 19.22 61.6739 17.78 61.9939 16.42H61.4539C60.8939 17.5 60.0139 18.12 59.0539 18.12C57.8739 18.12 57.4539 17.22 57.4539 15.8C57.4539 15.44 57.5339 15.02 57.6739 14.58L59.5539 14.08C61.7739 13.5 63.3539 12.3 63.3539 11.1C63.3539 10.24 62.7139 9.78 61.6939 9.78C58.8939 9.78 55.8539 13.06 55.8539 16.64C55.8539 18.14 56.7739 19.22 58.2939 19.22ZM57.8539 14.06C58.5139 12.34 59.9139 10.44 61.2139 10.44C61.7139 10.44 61.8939 10.72 61.8939 11.06C61.8939 11.88 60.9139 12.74 59.2939 13.44L57.8539 14.06ZM75.4128 19.22C76.0328 19.22 76.5528 18.84 77.0928 18.44L78.3328 17.5L77.9728 17L76.8528 18C76.7728 18.08 76.6728 18.1 76.5928 18.1C76.4128 18.1 76.2328 17.94 76.2328 17.58C76.2328 17.42 76.2728 17.2 76.3528 16.96L77.8328 12.68C77.9928 12.22 78.0728 11.8 78.0728 11.4C78.0728 10.48 77.5928 9.8 76.5128 9.8C74.9128 9.8 73.5528 11.36 72.1328 13.54L71.9728 13.5L73.3928 10L74.7928 5.98H75.6128V5.28H71.2728V5.98H73.2328L68.6528 19H70.2328L71.3528 15.86C72.1128 13.74 74.5928 10.88 75.7928 10.88C76.2728 10.88 76.4928 11.12 76.4928 11.58C76.4928 11.92 76.3928 12.36 76.1928 12.92L74.5928 17.48C74.4928 17.76 74.4528 18 74.4528 18.2C74.4528 18.9 74.9528 19.22 75.4128 19.22ZM82.2783 19.22C84.0583 19.22 85.6583 17.78 85.9783 16.42H85.4383C84.8783 17.5 83.9983 18.12 83.0383 18.12C81.8583 18.12 81.4383 17.22 81.4383 15.8C81.4383 15.44 81.5183 15.02 81.6583 14.58L83.5383 14.08C85.7583 13.5 87.3383 12.3 87.3383 11.1C87.3383 10.24 86.6983 9.78 85.6783 9.78C82.8783 9.78 79.8383 13.06 79.8383 16.64C79.8383 18.14 80.7583 19.22 82.2783 19.22ZM81.8383 14.06C82.4983 12.34 83.8983 10.44 85.1983 10.44C85.6983 10.44 85.8783 10.72 85.8783 11.06C85.8783 11.88 84.8983 12.74 83.2783 13.44L81.8383 14.06ZM89.8028 19L90.5628 16.88C90.9628 15.74 91.2628 15.4 91.8828 14.42C93.0828 12.56 94.7428 11.94 95.5428 11.68V9.8C94.5028 10.2 93.6828 10.78 92.2028 13.18L91.3428 14.56L91.1228 14.52C91.8028 12.26 92.2028 11.62 92.2028 10.8C92.2028 10.3 91.8428 9.8 90.9828 9.8C90.3628 9.8 89.8628 10.16 89.3228 10.58L88.1028 11.52L88.4628 12.02L89.2428 11.32C89.5228 11.06 89.8228 10.96 90.0628 10.96C90.4228 10.96 90.6828 11.2 90.6828 11.5C90.6828 12.1 90.4028 12.84 90.1628 13.52L88.2228 19H89.8028ZM97.8252 19.22C99.6052 19.22 101.205 17.78 101.525 16.42H100.985C100.425 17.5 99.5452 18.12 98.5852 18.12C97.4052 18.12 96.9852 17.22 96.9852 15.8C96.9852 15.44 97.0652 15.02 97.2052 14.58L99.0852 14.08C101.305 13.5 102.885 12.3 102.885 11.1C102.885 10.24 102.245 9.78 101.225 9.78C98.4252 9.78 95.3852 13.06 95.3852 16.64C95.3852 18.14 96.3052 19.22 97.8252 19.22ZM97.3852 14.06C98.0452 12.34 99.4452 10.44 100.745 10.44C101.245 10.44 101.425 10.72 101.425 11.06C101.425 11.88 100.445 12.74 98.8252 13.44L97.3852 14.06Z" fill="white"/>
</svg>
